<svg width="132" height="132" viewBox="0 0 132 132" fill="none" xmlns="http://www.w3.org/2000/svg">
<path d="M85.2969 77.5156C85.2969 82.0461 83.8103 85.7188 81.9766 85.7188C80.1428 85.7188 78.6562 82.0461 78.6562 77.5156C78.6562 72.9852 80.1428 69.3125 81.9766 69.3125C83.8103 69.3125 85.2969 72.9852 85.2969 77.5156Z" fill="#B9925B" stroke="black" stroke-width="2" stroke-miterlimit="10"/>
<path d="M59.5938 77.9844C59.5938 82.5149 58.1072 86.1875 56.2734 86.1875C54.4397 86.1875 52.9531 82.5149 52.9531 77.9844C52.9531 73.4539 54.4397 69.7812 56.2734 69.7812C58.1072 69.7812 59.5938 73.4539 59.5938 77.9844Z" fill="#B9925B" stroke="black" stroke-width="2" stroke-miterlimit="10"/>
<path d="M128.344 59.4297C128.344 63.4208 120.037 66.6562 109.789 66.6562C99.5416 66.6562 91.2344 63.4208 91.2344 59.4297C91.2344 55.4386 99.5416 52.2031 109.789 52.2031C120.037 52.2031 128.344 55.4386 128.344 59.4297Z" fill="#B9925B" stroke="black" stroke-width="2" stroke-miterlimit="10"/>
<path d="M114.281 55.3281C114.281 61.5845 109.035 66.6562 102.562 66.6562C96.0904 66.6562 90.8438 61.5845 90.8438 55.3281C90.8438 49.0718 96.0904 44 102.562 44C109.035 44 114.281 49.0718 114.281 55.3281Z" fill="#B9925B" stroke="black" stroke-width="2" stroke-miterlimit="10"/>
<path d="M104.413 61.4755C105.155 60.7339 105.896 61.2368 106.116 61.4179C106.281 61.0339 106.595 60.6147 106.906 60.2135C106.752 59.6153 106.865 59.0357 107.159 58.5015C107.134 58.2772 107.144 58.0474 107.196 57.8174C107.501 56.4686 108.808 55.9841 110.3 55.8958C110.382 55.5351 110.527 55.0896 110.748 54.5432C110.709 54.4214 110.687 54.2913 110.687 54.1562C110.687 53.4659 111.247 52.9062 111.937 52.9062H113.5V52.9774C113.62 52.9636 113.74 52.9572 113.862 52.9599C114.218 52.9676 114.56 53.0903 114.878 53.2969H115.062C115.753 53.2969 116.312 53.8565 116.312 54.5469C116.312 54.6899 116.288 54.8273 116.244 54.9553C116.558 55.588 116.765 56.2958 116.824 56.9601C117.217 57.1708 117.484 57.5854 117.484 58.0625C117.484 58.599 117.146 59.0566 116.672 59.2339L115.923 59.5334C115.907 59.6807 115.889 59.832 115.868 59.9872C115.727 61.0448 115.137 61.8039 114.331 62.2991L114.629 62.5225C114.939 62.75 115.141 63.1171 115.141 63.5312C115.141 64.2216 114.581 64.7812 113.891 64.7812H112.328C112.149 64.7801 111.96 64.7562 111.772 64.7109C111.408 65.1719 110.766 65.1719 110.766 65.1719H109.203C108.846 65.1719 108.523 65.0218 108.295 64.7812H108.031V64.4291L107.994 64.4199C107.268 64.5083 106.539 64.5055 105.833 64.3663L104.413 63.2433C104.413 63.2433 103.529 62.3594 104.413 61.4755Z" fill="#B9925B"/>
<path d="M65.8438 54.1562C81.3768 54.1562 93.9688 58.441 93.9688 63.7266C93.9688 69.0121 81.3768 73.2969 65.8438 73.2969C50.3107 73.2969 37.7188 69.0121 37.7188 63.7266C37.7188 58.441 50.3107 54.1562 65.8438 54.1562Z" fill="#B9925B" stroke="black" stroke-width="2" stroke-miterlimit="10"/>
<path d="M38.5 64.3125L35.7656 61.5781L15.4531 60.7969L1 47.125" stroke="black" stroke-width="2" stroke-miterlimit="10" stroke-linecap="round"/>
<path d="M51.3906 77.5937C51.3906 83.4186 49.7292 88.1406 47.6797 88.1406C45.6302 88.1406 43.9688 83.4186 43.9688 77.5937C43.9688 71.7689 45.6302 67.0469 47.6797 67.0469C49.7292 67.0469 51.3906 71.7688 51.3906 77.5937Z" fill="#B9925B" stroke="black" stroke-width="2" stroke-miterlimit="10"/>
<path d="M77.0938 77.125C77.0938 82.9499 75.4323 87.6719 73.3828 87.6719C71.3333 87.6719 69.6719 82.9499 69.6719 77.125C69.6719 71.3001 71.3333 66.5781 73.3828 66.5781C75.4323 66.5781 77.0938 71.3001 77.0938 77.125Z" fill="#B9925B" stroke="black" stroke-width="2" stroke-miterlimit="10"/>
<path d="M102.953 57.4765C102.953 61.0362 101.467 63.9219 99.6328 63.9219C97.7991 63.9219 96.3125 61.0362 96.3125 57.4765C96.3125 53.9169 97.7991 51.0312 99.6328 51.0312C101.467 51.0312 102.953 53.9169 102.953 57.4765Z" fill="#B9925B" stroke="black" stroke-width="2" stroke-miterlimit="10"/>
<path d="M129.464 60.8547C129.019 60.5492 128.857 60.0133 129.101 59.6577C129.346 59.3022 129.904 59.2616 130.349 59.5671C130.793 59.8726 130.955 60.4085 130.711 60.7641C130.467 61.1196 129.908 61.1602 129.464 60.8547Z" fill="#B9925B" stroke="black" stroke-width="2" stroke-miterlimit="10"/>
<path d="M107.445 52.9844C106.906 52.9844 106.469 52.6346 106.469 52.2031C106.469 51.7717 106.906 51.4219 107.445 51.4219C107.985 51.4219 108.422 51.7717 108.422 52.2031C108.422 52.6346 107.985 52.9844 107.445 52.9844Z" fill="#B9925B" stroke="black" stroke-width="2" stroke-miterlimit="10"/>
<path d="M111.625 59.625C111.625 60.875 110.375 60.875 110.375 60.875L110.712 60.184C110.495 60.4926 110.127 60.7385 110.06 61.1098C109.944 61.7527 111.191 61.7915 111.649 62.2567C113.719 64.3563 117.889 63.4531 120.922 63.4531C120.922 63.4531 122.172 63.4531 122.172 64.7031C122.172 65.9531 120.922 65.9531 120.922 65.9531C117.012 65.9531 112.727 66.8351 109.882 64.0245C108.855 63.01 107.681 63.3422 107.565 61.2652C107.52 60.473 108.172 59.799 108.476 59.066L110.375 58.375C110.375 58.375 111.625 58.375 111.625 59.625Z" fill="black"/>
</svg>
