# Blender v3.1.2 OBJ File: ''
# www.blender.org
mtllib untitled.mtl
o Cube.012_Cube.013
v -1.220546 2.351512 0.691441
v -1.186173 3.118373 0.480988
v -1.539309 2.171813 -0.015416
v -1.504936 2.938674 -0.225870
v -0.492016 2.236704 0.392092
v -0.457642 3.003565 0.181638
v -0.810778 2.057006 -0.314766
v -0.776405 2.823867 -0.525219
v -0.674640 2.628345 1.043587
v -0.783555 4.103979 1.055667
v -0.692027 2.639173 -0.435968
v -0.800941 4.114807 -0.423889
v 0.800941 2.737391 1.027046
v 0.692026 4.213025 1.039125
v 0.783555 2.748219 -0.452510
v 0.674640 4.223853 -0.440430
v -1.582567 2.413374 0.924345
v -1.850468 3.629755 0.924345
v -1.582567 2.413374 -0.321188
v -1.850468 3.629755 -0.321188
v -0.366187 2.681276 0.924345
v -0.634088 3.897656 0.924345
v -0.366187 2.681276 -0.321188
v -0.634088 3.897656 -0.321188
v -1.475847 2.729230 1.352709
v -1.233023 3.740408 1.498870
v -1.292804 2.833976 0.323956
v -1.049979 3.845154 0.470118
v -0.470691 2.465877 1.504740
v -0.227867 3.477055 1.650902
v -0.287647 2.570622 0.475988
v -0.044823 3.581800 0.622149
v -0.535340 2.109471 1.770439
v -0.466747 3.101166 1.763602
v -0.524917 2.101897 0.776435
v -0.456325 3.093593 0.769598
v 0.456324 2.040956 1.781359
v 0.524917 3.032651 1.774522
v 0.466747 2.033382 0.787355
v 0.535340 3.025077 0.780518
v -0.274828 2.600473 -0.204869
v -0.708806 3.675195 -0.329611
v -0.369023 2.429050 -1.354071
v -0.803001 3.503772 -1.478813
v 0.803000 3.018219 -0.355528
v 0.369023 4.092940 -0.480270
v 0.708805 2.846796 -1.504730
v 0.274828 3.921517 -1.629472
v -1.119816 2.838167 0.024788
v -1.092718 3.564971 -0.298584
v -1.455012 2.555166 -0.639367
v -1.427915 3.281971 -0.962739
v -0.398389 2.679377 -0.271651
v -0.371291 3.406181 -0.595024
v -0.733585 2.396376 -0.935806
v -0.706488 3.123180 -1.259179
v 0.565190 2.510850 0.803187
v 0.557618 3.563787 0.879626
v 0.537530 2.587067 -0.249430
v 0.529959 3.640004 -0.172990
v 1.620535 2.520402 0.776147
v 1.612963 3.573339 0.852586
v 1.592875 2.596619 -0.276469
v 1.585303 3.649555 -0.200030
v 0.151921 2.341099 0.400597
v 0.179018 3.067903 0.077225
v -0.183276 2.058098 -0.263558
v -0.156178 2.784902 -0.586930
v 0.873348 2.182308 0.104157
v 0.900445 2.909112 -0.219215
v 0.538152 1.899307 -0.559998
v 0.565249 2.626112 -0.883370
v 0.207994 2.710814 1.196809
v 0.709220 3.109763 0.724411
v -0.307686 2.644995 0.594074
v 0.193540 3.043943 0.121676
v 0.549160 2.025208 0.979788
v 1.050386 2.424157 0.507389
v 0.033479 1.959389 0.377053
v 0.534705 2.358337 -0.095346
v 0.653520 2.018993 0.559332
v 0.776764 2.790660 0.710624
v 0.399930 2.202952 -0.172378
v 0.523175 2.974619 -0.021086
v 1.397866 1.953897 0.284997
v 1.521111 2.725564 0.436289
v 1.144276 2.137857 -0.446713
v 1.267521 2.909523 -0.295421
v -0.556090 2.234998 1.117487
v -0.348637 3.003179 1.097257
v -0.957318 2.325407 0.436025
v -0.749865 3.093587 0.415795
v 0.099293 2.047188 0.706697
v 0.306746 2.815369 0.686467
v -0.301935 2.137597 0.025235
v -0.094482 2.905777 0.005005
vt 0.375000 0.000000
vt 0.625000 0.000000
vt 0.625000 0.250000
vt 0.375000 0.250000
vt 0.625000 0.500000
vt 0.375000 0.500000
vt 0.625000 0.750000
vt 0.375000 0.750000
vt 0.625000 1.000000
vt 0.375000 1.000000
vt 0.125000 0.500000
vt 0.125000 0.750000
vt 0.875000 0.500000
vt 0.875000 0.750000
vt 0.375000 0.000000
vt 0.625000 0.000000
vt 0.625000 0.250000
vt 0.375000 0.250000
vt 0.625000 0.500000
vt 0.375000 0.500000
vt 0.625000 0.750000
vt 0.375000 0.750000
vt 0.625000 1.000000
vt 0.375000 1.000000
vt 0.125000 0.500000
vt 0.125000 0.750000
vt 0.875000 0.500000
vt 0.875000 0.750000
vt 0.375000 0.000000
vt 0.625000 0.000000
vt 0.625000 0.250000
vt 0.375000 0.250000
vt 0.625000 0.500000
vt 0.375000 0.500000
vt 0.625000 0.750000
vt 0.375000 0.750000
vt 0.625000 1.000000
vt 0.375000 1.000000
vt 0.125000 0.500000
vt 0.125000 0.750000
vt 0.875000 0.500000
vt 0.875000 0.750000
vt 0.375000 0.000000
vt 0.625000 0.000000
vt 0.625000 0.250000
vt 0.375000 0.250000
vt 0.625000 0.500000
vt 0.375000 0.500000
vt 0.625000 0.750000
vt 0.375000 0.750000
vt 0.625000 1.000000
vt 0.375000 1.000000
vt 0.125000 0.500000
vt 0.125000 0.750000
vt 0.875000 0.500000
vt 0.875000 0.750000
vt 0.375000 0.000000
vt 0.625000 0.000000
vt 0.625000 0.250000
vt 0.375000 0.250000
vt 0.625000 0.500000
vt 0.375000 0.500000
vt 0.625000 0.750000
vt 0.375000 0.750000
vt 0.625000 1.000000
vt 0.375000 1.000000
vt 0.125000 0.500000
vt 0.125000 0.750000
vt 0.875000 0.500000
vt 0.875000 0.750000
vt 0.375000 0.000000
vt 0.625000 0.000000
vt 0.625000 0.250000
vt 0.375000 0.250000
vt 0.625000 0.500000
vt 0.375000 0.500000
vt 0.625000 0.750000
vt 0.375000 0.750000
vt 0.625000 1.000000
vt 0.375000 1.000000
vt 0.125000 0.500000
vt 0.125000 0.750000
vt 0.875000 0.500000
vt 0.875000 0.750000
vt 0.375000 0.000000
vt 0.625000 0.000000
vt 0.625000 0.250000
vt 0.375000 0.250000
vt 0.625000 0.500000
vt 0.375000 0.500000
vt 0.625000 0.750000
vt 0.375000 0.750000
vt 0.625000 1.000000
vt 0.375000 1.000000
vt 0.125000 0.500000
vt 0.125000 0.750000
vt 0.875000 0.500000
vt 0.875000 0.750000
vt 0.375000 0.000000
vt 0.625000 0.000000
vt 0.625000 0.250000
vt 0.375000 0.250000
vt 0.625000 0.500000
vt 0.375000 0.500000
vt 0.625000 0.750000
vt 0.375000 0.750000
vt 0.625000 1.000000
vt 0.375000 1.000000
vt 0.125000 0.500000
vt 0.125000 0.750000
vt 0.875000 0.500000
vt 0.875000 0.750000
vt 0.375000 0.000000
vt 0.625000 0.000000
vt 0.625000 0.250000
vt 0.375000 0.250000
vt 0.625000 0.500000
vt 0.375000 0.500000
vt 0.625000 0.750000
vt 0.375000 0.750000
vt 0.625000 1.000000
vt 0.375000 1.000000
vt 0.125000 0.500000
vt 0.125000 0.750000
vt 0.875000 0.500000
vt 0.875000 0.750000
vt 0.375000 0.000000
vt 0.625000 0.000000
vt 0.625000 0.250000
vt 0.375000 0.250000
vt 0.625000 0.500000
vt 0.375000 0.500000
vt 0.625000 0.750000
vt 0.375000 0.750000
vt 0.625000 1.000000
vt 0.375000 1.000000
vt 0.125000 0.500000
vt 0.125000 0.750000
vt 0.875000 0.500000
vt 0.875000 0.750000
vt 0.375000 0.000000
vt 0.625000 0.000000
vt 0.625000 0.250000
vt 0.375000 0.250000
vt 0.625000 0.500000
vt 0.375000 0.500000
vt 0.625000 0.750000
vt 0.375000 0.750000
vt 0.625000 1.000000
vt 0.375000 1.000000
vt 0.125000 0.500000
vt 0.125000 0.750000
vt 0.875000 0.500000
vt 0.875000 0.750000
vt 0.375000 0.000000
vt 0.625000 0.000000
vt 0.625000 0.250000
vt 0.375000 0.250000
vt 0.625000 0.500000
vt 0.375000 0.500000
vt 0.625000 0.750000
vt 0.375000 0.750000
vt 0.625000 1.000000
vt 0.375000 1.000000
vt 0.125000 0.500000
vt 0.125000 0.750000
vt 0.875000 0.500000
vt 0.875000 0.750000
vn -0.9153 0.1442 0.3761
vn -0.4005 -0.2258 -0.8881
vn 0.9153 -0.1442 -0.3761
vn 0.4005 0.2258 0.8881
vn -0.0432 -0.9634 0.2644
vn 0.0432 0.9634 -0.2644
vn -0.9972 -0.0737 0.0112
vn -0.0117 0.0073 -0.9999
vn 0.9972 0.0737 -0.0112
vn 0.0117 -0.0073 0.9999
vn 0.0736 -0.9973 -0.0082
vn -0.0736 0.9973 0.0082
vn -0.9766 -0.2151 -0.0000
vn 0.0000 -0.0000 -1.0000
vn 0.9766 0.2151 0.0000
vn -0.0000 0.0000 1.0000
vn 0.2151 -0.9766 0.0000
vn -0.2151 0.9766 0.0000
vn -0.9572 0.2508 -0.1448
vn 0.1743 0.0997 -0.9796
vn 0.9572 -0.2508 0.1448
vn -0.1743 -0.0997 0.9796
vn -0.2312 -0.9629 -0.1392
vn 0.2312 0.9629 0.1392
vn -0.9976 0.0689 -0.0110
vn 0.0105 -0.0076 -0.9999
vn 0.9976 -0.0689 0.0110
vn -0.0105 0.0076 0.9999
vn -0.0690 -0.9976 0.0069
vn 0.0690 0.9976 -0.0069
vn -0.9246 -0.3584 0.1292
vn -0.0808 -0.1471 -0.9858
vn 0.9246 0.3584 -0.1292
vn 0.0808 0.1471 0.9858
vn 0.3723 -0.9219 0.1070
vn -0.3723 0.9219 -0.1070
vn -0.9064 0.1995 0.3724
vn -0.4211 -0.3555 -0.8344
vn 0.9064 -0.1995 -0.3724
vn 0.4211 0.3555 0.8344
vn -0.0340 -0.9131 0.4063
vn 0.0340 0.9131 -0.4063
vn -0.9996 -0.0090 0.0256
vn -0.0262 0.0722 -0.9970
vn 0.9996 0.0090 -0.0256
vn 0.0262 -0.0722 0.9970
vn 0.0072 -0.9973 -0.0724
vn -0.0072 0.9973 0.0724
vn -0.4286 0.8614 0.2727
vn -0.6479 -0.0827 -0.7572
vn 0.4286 -0.8614 -0.2727
vn 0.6479 0.0827 0.7572
vn -0.6297 -0.5012 0.5935
vn 0.6297 0.5012 -0.5935
vn -0.9352 0.0818 0.3447
vn -0.3186 0.2311 -0.9193
vn 0.9352 -0.0818 -0.3447
vn 0.3186 -0.2311 0.9193
vn -0.1548 -0.9695 -0.1901
vn 0.1548 0.9695 0.1901
vn -0.8234 0.2360 0.5161
vn -0.5041 0.1136 -0.8562
vn 0.8234 -0.2360 -0.5161
vn 0.5041 -0.1136 0.8562
vn -0.2606 -0.9651 0.0254
vn 0.2606 0.9651 -0.0254
usemtl None
s off
f 1/1/1 2/2/1 4/3/1 3/4/1
f 3/4/2 4/3/2 8/5/2 7/6/2
f 7/6/3 8/5/3 6/7/3 5/8/3
f 5/8/4 6/7/4 2/9/4 1/10/4
f 3/11/5 7/6/5 5/8/5 1/12/5
f 8/5/6 4/13/6 2/14/6 6/7/6
f 9/15/7 10/16/7 12/17/7 11/18/7
f 11/18/8 12/17/8 16/19/8 15/20/8
f 15/20/9 16/19/9 14/21/9 13/22/9
f 13/22/10 14/21/10 10/23/10 9/24/10
f 11/25/11 15/20/11 13/22/11 9/26/11
f 16/19/12 12/27/12 10/28/12 14/21/12
f 17/29/13 18/30/13 20/31/13 19/32/13
f 19/32/14 20/31/14 24/33/14 23/34/14
f 23/34/15 24/33/15 22/35/15 21/36/15
f 21/36/16 22/35/16 18/37/16 17/38/16
f 19/39/17 23/34/17 21/36/17 17/40/17
f 24/33/18 20/41/18 18/42/18 22/35/18
f 25/43/19 26/44/19 28/45/19 27/46/19
f 27/46/20 28/45/20 32/47/20 31/48/20
f 31/48/21 32/47/21 30/49/21 29/50/21
f 29/50/22 30/49/22 26/51/22 25/52/22
f 27/53/23 31/48/23 29/50/23 25/54/23
f 32/47/24 28/55/24 26/56/24 30/49/24
f 33/57/25 34/58/25 36/59/25 35/60/25
f 35/60/26 36/59/26 40/61/26 39/62/26
f 39/62/27 40/61/27 38/63/27 37/64/27
f 37/64/28 38/63/28 34/65/28 33/66/28
f 35/67/29 39/62/29 37/64/29 33/68/29
f 40/61/30 36/69/30 34/70/30 38/63/30
f 41/71/31 42/72/31 44/73/31 43/74/31
f 43/74/32 44/73/32 48/75/32 47/76/32
f 47/76/33 48/75/33 46/77/33 45/78/33
f 45/78/34 46/77/34 42/79/34 41/80/34
f 43/81/35 47/76/35 45/78/35 41/82/35
f 48/75/36 44/83/36 42/84/36 46/77/36
f 49/85/37 50/86/37 52/87/37 51/88/37
f 51/88/38 52/87/38 56/89/38 55/90/38
f 55/90/39 56/89/39 54/91/39 53/92/39
f 53/92/40 54/91/40 50/93/40 49/94/40
f 51/95/41 55/90/41 53/92/41 49/96/41
f 56/89/42 52/97/42 50/98/42 54/91/42
f 57/99/43 58/100/43 60/101/43 59/102/43
f 59/102/44 60/101/44 64/103/44 63/104/44
f 63/104/45 64/103/45 62/105/45 61/106/45
f 61/106/46 62/105/46 58/107/46 57/108/46
f 59/109/47 63/104/47 61/106/47 57/110/47
f 64/103/48 60/111/48 58/112/48 62/105/48
f 65/113/37 66/114/37 68/115/37 67/116/37
f 67/116/38 68/115/38 72/117/38 71/118/38
f 71/118/39 72/117/39 70/119/39 69/120/39
f 69/120/40 70/119/40 66/121/40 65/122/40
f 67/123/41 71/118/41 69/120/41 65/124/41
f 72/117/42 68/125/42 66/126/42 70/119/42
f 73/127/49 74/128/49 76/129/49 75/130/49
f 75/130/50 76/129/50 80/131/50 79/132/50
f 79/132/51 80/131/51 78/133/51 77/134/51
f 77/134/52 78/133/52 74/135/52 73/136/52
f 75/137/53 79/132/53 77/134/53 73/138/53
f 80/131/54 76/139/54 74/140/54 78/133/54
f 81/141/55 82/142/55 84/143/55 83/144/55
f 83/144/56 84/143/56 88/145/56 87/146/56
f 87/146/57 88/145/57 86/147/57 85/148/57
f 85/148/58 86/147/58 82/149/58 81/150/58
f 83/151/59 87/146/59 85/148/59 81/152/59
f 88/145/60 84/153/60 82/154/60 86/147/60
f 89/155/61 90/156/61 92/157/61 91/158/61
f 91/158/62 92/157/62 96/159/62 95/160/62
f 95/160/63 96/159/63 94/161/63 93/162/63
f 93/162/64 94/161/64 90/163/64 89/164/64
f 91/165/65 95/160/65 93/162/65 89/166/65
f 96/159/66 92/167/66 90/168/66 94/161/66
o Cylinder_Cylinder.002
v -0.000000 1.150002 0.091614
v 0.000000 2.183580 0.820701
v 0.069081 1.137775 0.108948
v 0.069081 2.171353 0.838035
v 0.111775 1.105764 0.154327
v 0.111775 2.139342 0.883414
v 0.111775 1.066197 0.210419
v 0.111775 2.099775 0.939506
v 0.069081 1.034186 0.255799
v 0.069081 2.067764 0.984886
v -0.000000 1.021959 0.273132
v -0.000000 2.055537 1.002219
v -0.069081 1.034186 0.255799
v -0.069081 2.067764 0.984886
v -0.111775 1.066197 0.210419
v -0.111775 2.099775 0.939506
v -0.111775 1.105764 0.154327
v -0.111775 2.139342 0.883414
v -0.069081 1.137775 0.108948
v -0.069081 2.171353 0.838035
v 0.091614 1.510055 0.013673
v 0.820701 2.543633 0.013673
v 0.108948 1.497828 -0.055408
v 0.838035 2.531406 -0.055408
v 0.154327 1.465818 -0.098102
v 0.883414 2.499396 -0.098102
v 0.210419 1.426250 -0.098102
v 0.939506 2.459828 -0.098102
v 0.255799 1.394239 -0.055408
v 0.984886 2.427817 -0.055408
v 0.273132 1.382012 0.013673
v 1.002219 2.415590 0.013673
v 0.255799 1.394239 0.082753
v 0.984886 2.427817 0.082753
v 0.210419 1.426250 0.125448
v 0.939506 2.459828 0.125448
v 0.154327 1.465818 0.125448
v 0.883414 2.499396 0.125448
v 0.108948 1.497828 0.082753
v 0.838035 2.531406 0.082753
v 0.004489 1.608500 -0.072472
v 0.004489 2.642078 -0.801559
v -0.064592 1.596273 -0.089806
v -0.064592 2.629851 -0.818893
v -0.107286 1.564263 -0.135185
v -0.107286 2.597841 -0.864272
v -0.107286 1.524695 -0.191277
v -0.107286 2.558273 -0.920364
v -0.064592 1.492684 -0.236657
v -0.064592 2.526263 -0.965744
v 0.004489 1.480457 -0.253990
v 0.004489 2.514035 -0.983077
v 0.073570 1.492684 -0.236657
v 0.073569 2.526263 -0.965744
v 0.116264 1.524695 -0.191277
v 0.116263 2.558273 -0.920364
v 0.116264 1.564263 -0.135185
v 0.116263 2.597841 -0.864272
v 0.073570 1.596273 -0.089806
v 0.073569 2.629851 -0.818893
v -0.110228 1.608500 -0.028987
v -0.839315 2.642078 -0.028987
v -0.127561 1.596273 0.040094
v -0.856648 2.629851 0.040094
v -0.172941 1.564263 0.082788
v -0.902028 2.597841 0.082788
v -0.229033 1.524695 0.082788
v -0.958120 2.558273 0.082788
v -0.274412 1.492684 0.040094
v -1.003499 2.526263 0.040094
v -0.291746 1.480457 -0.028987
v -1.020833 2.514035 -0.028987
v -0.274412 1.492684 -0.098067
v -1.003499 2.526262 -0.098067
v -0.229033 1.524695 -0.140761
v -0.958120 2.558273 -0.140761
v -0.172941 1.564263 -0.140761
v -0.902028 2.597841 -0.140761
v -0.127561 1.596273 -0.098067
v -0.856648 2.629851 -0.098067
v 0.000000 -0.346524 -0.400000
v 0.282843 -0.346524 -0.282843
v 0.400000 -0.346524 0.000000
v 0.282843 -0.346524 0.282843
v -0.000000 -0.346524 0.400000
v -0.282843 -0.346524 0.282843
v -0.400000 -0.346524 0.000000
v -0.282843 -0.346524 -0.282843
v -0.000000 0.766849 -0.000000
v -0.000000 -0.044532 -0.290000
v -0.000000 2.845468 -0.290000
v 0.205061 -0.044532 -0.205061
v 0.205061 2.845468 -0.205061
v 0.290000 -0.044532 0.000000
v 0.290000 2.845468 0.000000
v 0.205061 -0.044532 0.205061
v 0.205061 2.845468 0.205061
v -0.000000 -0.044532 0.290000
v -0.000000 2.845468 0.290000
v -0.205061 -0.044532 0.205061
v -0.205061 2.845468 0.205061
v -0.290000 -0.044532 0.000000
v -0.290000 2.845468 0.000000
v -0.205061 -0.044532 -0.205061
v -0.205061 2.845468 -0.205061
vt 1.000000 0.500000
vt 1.000000 1.000000
vt 0.900000 1.000000
vt 0.900000 0.500000
vt 0.800000 1.000000
vt 0.800000 0.500000
vt 0.700000 1.000000
vt 0.700000 0.500000
vt 0.600000 1.000000
vt 0.600000 0.500000
vt 0.500000 1.000000
vt 0.500000 0.500000
vt 0.400000 1.000000
vt 0.400000 0.500000
vt 0.300000 1.000000
vt 0.300000 0.500000
vt 0.200000 1.000000
vt 0.200000 0.500000
vt 0.391068 0.444164
vt 0.250000 0.490000
vt 0.108932 0.444164
vt 0.021746 0.324164
vt 0.021746 0.175836
vt 0.108932 0.055836
vt 0.250000 0.010000
vt 0.391068 0.055836
vt 0.478254 0.175836
vt 0.478254 0.324164
vt 0.100000 1.000000
vt 0.100000 0.500000
vt -0.000000 1.000000
vt -0.000000 0.500000
vt 0.750000 0.490000
vt 0.891068 0.444164
vt 0.978254 0.324164
vt 0.978254 0.175836
vt 0.891068 0.055836
vt 0.750000 0.010000
vt 0.608932 0.055836
vt 0.521746 0.175836
vt 0.521746 0.324164
vt 0.608932 0.444164
vt 1.000000 0.500000
vt 1.000000 1.000000
vt 0.900000 1.000000
vt 0.900000 0.500000
vt 0.800000 1.000000
vt 0.800000 0.500000
vt 0.700000 1.000000
vt 0.700000 0.500000
vt 0.600000 1.000000
vt 0.600000 0.500000
vt 0.500000 1.000000
vt 0.500000 0.500000
vt 0.400000 1.000000
vt 0.400000 0.500000
vt 0.300000 1.000000
vt 0.300000 0.500000
vt 0.200000 1.000000
vt 0.200000 0.500000
vt 0.391068 0.444164
vt 0.250000 0.490000
vt 0.108932 0.444164
vt 0.021746 0.324164
vt 0.021746 0.175836
vt 0.108932 0.055836
vt 0.250000 0.010000
vt 0.391068 0.055836
vt 0.478254 0.175836
vt 0.478254 0.324164
vt 0.100000 1.000000
vt 0.100000 0.500000
vt -0.000000 1.000000
vt -0.000000 0.500000
vt 0.750000 0.490000
vt 0.891068 0.444164
vt 0.978254 0.324164
vt 0.978254 0.175836
vt 0.891068 0.055836
vt 0.750000 0.010000
vt 0.608932 0.055836
vt 0.521746 0.175836
vt 0.521746 0.324164
vt 0.608932 0.444164
vt 1.000000 0.500000
vt 1.000000 1.000000
vt 0.900000 1.000000
vt 0.900000 0.500000
vt 0.800000 1.000000
vt 0.800000 0.500000
vt 0.700000 1.000000
vt 0.700000 0.500000
vt 0.600000 1.000000
vt 0.600000 0.500000
vt 0.500000 1.000000
vt 0.500000 0.500000
vt 0.400000 1.000000
vt 0.400000 0.500000
vt 0.300000 1.000000
vt 0.300000 0.500000
vt 0.200000 1.000000
vt 0.200000 0.500000
vt 0.391068 0.444164
vt 0.250000 0.490000
vt 0.108932 0.444164
vt 0.021746 0.324164
vt 0.021746 0.175836
vt 0.108932 0.055836
vt 0.250000 0.010000
vt 0.391068 0.055836
vt 0.478254 0.175836
vt 0.478254 0.324164
vt 0.100000 1.000000
vt 0.100000 0.500000
vt -0.000000 1.000000
vt -0.000000 0.500000
vt 0.750000 0.490000
vt 0.891068 0.444164
vt 0.978254 0.324164
vt 0.978254 0.175836
vt 0.891068 0.055836
vt 0.750000 0.010000
vt 0.608932 0.055836
vt 0.521746 0.175836
vt 0.521746 0.324164
vt 0.608932 0.444164
vt 1.000000 0.500000
vt 1.000000 1.000000
vt 0.900000 1.000000
vt 0.900000 0.500000
vt 0.800000 1.000000
vt 0.800000 0.500000
vt 0.700000 1.000000
vt 0.700000 0.500000
vt 0.600000 1.000000
vt 0.600000 0.500000
vt 0.500000 1.000000
vt 0.500000 0.500000
vt 0.400000 1.000000
vt 0.400000 0.500000
vt 0.300000 1.000000
vt 0.300000 0.500000
vt 0.200000 1.000000
vt 0.200000 0.500000
vt 0.391068 0.444164
vt 0.250000 0.490000
vt 0.108932 0.444164
vt 0.021746 0.324164
vt 0.021746 0.175836
vt 0.108932 0.055836
vt 0.250000 0.010000
vt 0.391068 0.055836
vt 0.478254 0.175836
vt 0.478254 0.324164
vt 0.100000 1.000000
vt 0.100000 0.500000
vt -0.000000 1.000000
vt -0.000000 0.500000
vt 0.750000 0.490000
vt 0.891068 0.444164
vt 0.978254 0.324164
vt 0.978254 0.175836
vt 0.891068 0.055836
vt 0.750000 0.010000
vt 0.608932 0.055836
vt 0.521746 0.175836
vt 0.521746 0.324164
vt 0.608932 0.444164
vt 0.250000 0.490000
vt 0.250000 0.250000
vt 0.419706 0.419706
vt 0.490000 0.250000
vt 0.419706 0.080294
vt 0.250000 0.010000
vt 0.080294 0.080294
vt 0.010000 0.250000
vt 0.750000 0.490000
vt 0.919706 0.419706
vt 0.990000 0.250000
vt 0.919706 0.080294
vt 0.750000 0.010000
vt 0.580294 0.080294
vt 0.510000 0.250000
vt 0.580294 0.419706
vt 0.080294 0.419706
vt 1.000000 0.500000
vt 1.000000 1.000000
vt 0.875000 1.000000
vt 0.875000 0.500000
vt 0.750000 1.000000
vt 0.750000 0.500000
vt 0.625000 1.000000
vt 0.625000 0.500000
vt 0.500000 1.000000
vt 0.500000 0.500000
vt 0.375000 1.000000
vt 0.375000 0.500000
vt 0.250000 1.000000
vt 0.250000 0.500000
vt 0.419706 0.419706
vt 0.250000 0.490000
vt 0.080294 0.419706
vt 0.010000 0.250000
vt 0.080294 0.080294
vt 0.250000 0.010000
vt 0.419706 0.080294
vt 0.490000 0.250000
vt 0.125000 1.000000
vt 0.125000 0.500000
vt 0.000000 1.000000
vt 0.000000 0.500000
vt 0.750000 0.490000
vt 0.919706 0.419706
vt 0.990000 0.250000
vt 0.919706 0.080294
vt 0.750000 0.010000
vt 0.580294 0.080294
vt 0.510000 0.250000
vt 0.580294 0.419706
vn 0.2935 0.5510 -0.7812
vn 0.7928 0.3513 -0.4981
vn 1.0000 -0.0000 0.0000
vn 0.7928 -0.3513 0.4981
vn 0.2935 -0.5510 0.7812
vn -0.2935 -0.5510 0.7812
vn -0.7928 -0.3513 0.4981
vn -1.0000 0.0000 0.0000
vn 0.0000 0.8172 0.5764
vn -0.7928 0.3513 -0.4981
vn -0.2935 0.5510 -0.7812
vn -0.0000 -0.8172 -0.5764
vn -0.7812 0.5510 -0.2935
vn -0.4981 0.3513 -0.7928
vn 0.0000 -0.0000 -1.0000
vn 0.4981 -0.3513 -0.7928
vn 0.7812 -0.5510 -0.2935
vn 0.7812 -0.5510 0.2935
vn 0.4981 -0.3513 0.7928
vn 0.0000 0.0000 1.0000
vn 0.5764 0.8172 0.0000
vn -0.4981 0.3513 0.7928
vn -0.7812 0.5510 0.2935
vn -0.5764 -0.8172 -0.0000
vn -0.2935 0.5510 0.7812
vn -0.7928 0.3513 0.4981
vn -0.7928 -0.3513 -0.4981
vn -0.2935 -0.5510 -0.7812
vn 0.2935 -0.5510 -0.7812
vn 0.7928 -0.3513 -0.4981
vn 0.0000 0.8172 -0.5764
vn 0.7928 0.3513 0.4981
vn 0.2935 0.5510 0.7812
vn 0.0000 -0.8172 0.5764
vn 0.7812 0.5510 0.2935
vn 0.4981 0.3513 0.7928
vn -0.4981 -0.3513 0.7928
vn -0.7812 -0.5510 0.2935
vn -0.7812 -0.5510 -0.2935
vn -0.4981 -0.3513 -0.7928
vn -0.5764 0.8172 0.0000
vn 0.4981 0.3513 -0.7928
vn 0.7812 0.5510 -0.2935
vn 0.5764 -0.8172 -0.0000
vn 0.0000 -0.4972 -0.8676
vn 0.0000 1.0000 -0.0000
vn 0.6135 -0.4972 -0.6135
vn 0.8676 -0.4972 0.0000
vn 0.6135 -0.4972 0.6135
vn -0.0000 -0.4972 0.8676
vn -0.6135 -0.4972 0.6135
vn -0.8676 -0.4972 0.0000
vn -0.6135 -0.4972 -0.6135
vn 0.0000 -0.6303 -0.7764
vn 0.0000 0.6303 -0.7764
vn 0.5490 0.6303 -0.5490
vn 0.5490 -0.6303 -0.5490
vn 0.7764 0.6303 -0.0000
vn 0.7764 -0.6303 -0.0000
vn 0.5490 0.6303 0.5490
vn 0.5490 -0.6303 0.5490
vn -0.0000 0.6303 0.7764
vn -0.0000 -0.6303 0.7764
vn -0.5490 0.6303 0.5490
vn -0.5490 -0.6303 0.5490
vn -0.7764 0.6303 -0.0000
vn -0.7764 -0.6303 0.0000
vn -0.5490 0.6303 -0.5490
vn -0.5490 -0.6303 -0.5490
usemtl None
s off
f 97/169/67 98/170/67 100/171/67 99/172/67
f 99/172/68 100/171/68 102/173/68 101/174/68
f 101/174/69 102/173/69 104/175/69 103/176/69
f 103/176/70 104/175/70 106/177/70 105/178/70
f 105/178/71 106/177/71 108/179/71 107/180/71
f 107/180/72 108/179/72 110/181/72 109/182/72
f 109/182/73 110/181/73 112/183/73 111/184/73
f 111/184/74 112/183/74 114/185/74 113/186/74
f 100/187/75 98/188/75 116/189/75 114/190/75 112/191/75 110/192/75 108/193/75 106/194/75 104/195/75 102/196/75
f 113/186/76 114/185/76 116/197/76 115/198/76
f 115/198/77 116/197/77 98/199/77 97/200/77
f 97/201/78 99/202/78 101/203/78 103/204/78 105/205/78 107/206/78 109/207/78 111/208/78 113/209/78 115/210/78
f 117/211/79 118/212/79 120/213/79 119/214/79
f 119/214/80 120/213/80 122/215/80 121/216/80
f 121/216/81 122/215/81 124/217/81 123/218/81
f 123/218/82 124/217/82 126/219/82 125/220/82
f 125/220/83 126/219/83 128/221/83 127/222/83
f 127/222/84 128/221/84 130/223/84 129/224/84
f 129/224/85 130/223/85 132/225/85 131/226/85
f 131/226/86 132/225/86 134/227/86 133/228/86
f 120/229/87 118/230/87 136/231/87 134/232/87 132/233/87 130/234/87 128/235/87 126/236/87 124/237/87 122/238/87
f 133/228/88 134/227/88 136/239/88 135/240/88
f 135/240/89 136/239/89 118/241/89 117/242/89
f 117/243/90 119/244/90 121/245/90 123/246/90 125/247/90 127/248/90 129/249/90 131/250/90 133/251/90 135/252/90
f 137/253/91 138/254/91 140/255/91 139/256/91
f 139/256/92 140/255/92 142/257/92 141/258/92
f 141/258/74 142/257/74 144/259/74 143/260/74
f 143/260/93 144/259/93 146/261/93 145/262/93
f 145/262/94 146/261/94 148/263/94 147/264/94
f 147/264/95 148/263/95 150/265/95 149/266/95
f 149/266/96 150/265/96 152/267/96 151/268/96
f 151/268/69 152/267/69 154/269/69 153/270/69
f 140/271/97 138/272/97 156/273/97 154/274/97 152/275/97 150/276/97 148/277/97 146/278/97 144/279/97 142/280/97
f 153/270/98 154/269/98 156/281/98 155/282/98
f 155/282/99 156/281/99 138/283/99 137/284/99
f 137/285/100 139/286/100 141/287/100 143/288/100 145/289/100 147/290/100 149/291/100 151/292/100 153/293/100 155/294/100
f 157/295/101 158/296/101 160/297/101 159/298/101
f 159/298/102 160/297/102 162/299/102 161/300/102
f 161/300/86 162/299/86 164/301/86 163/302/86
f 163/302/103 164/301/103 166/303/103 165/304/103
f 165/304/104 166/303/104 168/305/104 167/306/104
f 167/306/105 168/305/105 170/307/105 169/308/105
f 169/308/106 170/307/106 172/309/106 171/310/106
f 171/310/81 172/309/81 174/311/81 173/312/81
f 160/313/107 158/314/107 176/315/107 174/316/107 172/317/107 170/318/107 168/319/107 166/320/107 164/321/107 162/322/107
f 173/312/108 174/311/108 176/323/108 175/324/108
f 175/324/109 176/323/109 158/325/109 157/326/109
f 157/327/110 159/328/110 161/329/110 163/330/110 165/331/110 167/332/110 169/333/110 171/334/110 173/335/110 175/336/110
s 1
f 177/337/111 185/338/112 178/339/113
f 178/339/113 185/338/112 179/340/114
f 179/340/114 185/338/112 180/341/115
f 180/341/115 185/338/112 181/342/116
f 181/342/116 185/338/112 182/343/117
f 182/343/117 185/338/112 183/344/118
f 177/345/111 178/346/113 179/347/114 180/348/115 181/349/116 182/350/117 183/351/118 184/352/119
f 183/344/118 185/338/112 184/353/119
f 184/353/119 185/338/112 177/337/111
f 186/354/120 187/355/121 189/356/122 188/357/123
f 188/357/123 189/356/122 191/358/124 190/359/125
f 190/359/125 191/358/124 193/360/126 192/361/127
f 192/361/127 193/360/126 195/362/128 194/363/129
f 194/363/129 195/362/128 197/364/130 196/365/131
f 196/365/131 197/364/130 199/366/132 198/367/133
f 189/368/122 187/369/121 201/370/134 199/371/132 197/372/130 195/373/128 193/374/126 191/375/124
f 198/367/133 199/366/132 201/376/134 200/377/135
f 200/377/135 201/376/134 187/378/121 186/379/120
f 186/380/120 188/381/123 190/382/125 192/383/127 194/384/129 196/385/131 198/386/133 200/387/135
