<svg width="128" height="48" viewBox="0 0 128 48" fill="none" xmlns="http://www.w3.org/2000/svg">
<path d="M64 35C64 37.9405 63.5105 40.5562 62.7564 42.3995C62.3784 43.3237 61.9535 44.0054 61.5328 44.4403C61.115 44.8723 60.7662 45 60.5 45C60.2338 45 59.885 44.8723 59.4672 44.4403C59.0465 44.0054 58.6216 43.3237 58.2436 42.3995C57.4895 40.5562 57 37.9405 57 35C57 32.0595 57.4895 29.4438 58.2436 27.6005C58.6216 26.6763 59.0465 25.9946 59.4672 25.5597C59.885 25.1277 60.2338 25 60.5 25C60.7662 25 61.115 25.1277 61.5328 25.5597C61.9535 25.9946 62.3784 26.6763 62.7564 27.6005C63.5105 29.4438 64 32.0595 64 35Z" fill="#AF7744" stroke="black" stroke-width="2"/>
<path d="M89 35C89 37.9405 88.5105 40.5562 87.7564 42.3995C87.3784 43.3237 86.9535 44.0054 86.5328 44.4403C86.115 44.8723 85.7662 45 85.5 45C85.2338 45 84.885 44.8723 84.4672 44.4403C84.0465 44.0054 83.6216 43.3237 83.2436 42.3995C82.4895 40.5562 82 37.9405 82 35C82 32.0595 82.4895 29.4438 83.2436 27.6005C83.6216 26.6763 84.0465 25.9946 84.4672 25.5597C84.885 25.1277 85.2338 25 85.5 25C85.7662 25 86.115 25.1277 86.5328 25.5597C86.9535 25.9946 87.3784 26.6763 87.7564 27.6005C88.5105 29.4438 89 32.0595 89 35Z" fill="#AF7744" stroke="black" stroke-width="2"/>
<mask id="path-3-inside-1_312_57" fill="white">
<path fill-rule="evenodd" clip-rule="evenodd" d="M100.71 24.6928C99.8389 24.8938 98.9319 25 98 25C91.3726 25 86 19.6274 86 13C86 6.37258 91.3726 1 98 1C104.002 1 108.975 5.40673 109.86 11.1613C117.946 11.8484 124 14.6493 124 18C124 21.866 115.941 25 106 25C104.159 25 102.382 24.8925 100.71 24.6928Z"/>
</mask>
<path fill-rule="evenodd" clip-rule="evenodd" d="M100.71 24.6928C99.8389 24.8938 98.9319 25 98 25C91.3726 25 86 19.6274 86 13C86 6.37258 91.3726 1 98 1C104.002 1 108.975 5.40673 109.86 11.1613C117.946 11.8484 124 14.6493 124 18C124 21.866 115.941 25 106 25C104.159 25 102.382 24.8925 100.71 24.6928Z" fill="#AF7744"/>
<path d="M100.71 24.6928L100.947 22.7069L100.6 22.6655L100.26 22.744L100.71 24.6928ZM109.86 11.1613L107.883 11.4653L108.122 13.0209L109.691 13.1542L109.86 11.1613ZM100.26 22.744C99.5356 22.9112 98.7794 23 98 23V27C99.0843 27 100.142 26.8764 101.16 26.6416L100.26 22.744ZM98 23C92.4772 23 88 18.5228 88 13H84C84 20.732 90.268 27 98 27V23ZM88 13C88 7.47715 92.4772 3 98 3V-1C90.268 -1 84 5.26801 84 13H88ZM98 3C103 3 107.146 6.67152 107.883 11.4653L111.837 10.8574C110.804 4.14195 105.004 -1 98 -1V3ZM109.691 13.1542C113.576 13.4843 116.858 14.316 119.101 15.3867C120.225 15.9232 120.998 16.4771 121.465 16.9781C121.921 17.4681 122 17.8071 122 18H126C126 16.5176 125.322 15.2499 124.391 14.2509C123.47 13.2628 122.224 12.4453 120.824 11.7769C118.019 10.4378 114.231 9.52551 110.029 9.16852L109.691 13.1542ZM122 18C122 18.2178 121.894 18.6432 121.232 19.2524C120.568 19.8632 119.496 20.5052 118.003 21.0857C115.03 22.2419 110.787 23 106 23V27C111.154 27 115.911 26.1911 119.453 24.8138C121.217 24.1276 122.782 23.2611 123.939 22.197C125.098 21.1313 126 19.7152 126 18H122ZM106 23C104.236 23 102.539 22.897 100.947 22.7069L100.473 26.6787C102.226 26.8881 104.082 27 106 27V23Z" fill="black" mask="url(#path-3-inside-1_312_57)"/>
<path d="M98 15.5C98 17.1403 97.5888 18.5775 96.9768 19.5721C96.3548 20.5829 95.6278 21 95 21C94.3722 21 93.6452 20.5829 93.0232 19.5721C92.4112 18.5775 92 17.1403 92 15.5C92 13.8597 92.4112 12.4225 93.0232 11.4279C93.6452 10.4171 94.3722 10 95 10C95.6278 10 96.3548 10.4171 96.9768 11.4279C97.5888 12.4225 98 13.8597 98 15.5Z" fill="#AF7744" stroke="black" stroke-width="2"/>
<circle cx="102" cy="11" r="1" fill="#AF7744" stroke="black" stroke-width="2"/>
<circle cx="124" cy="18" r="1" fill="#AF7744" stroke="black" stroke-width="2"/>
<path d="M117.003 22C110.003 23.5 101.503 20 106.503 17" stroke="black" stroke-width="2" stroke-linecap="round"/>
<path d="M94 25C94 25.9796 93.4572 27.0422 92.187 28.1342C90.9201 29.2234 89.0283 30.2496 86.6037 31.1313C81.7627 32.8916 75.0087 34 67.5 34C59.9913 34 53.2373 32.8916 48.3963 31.1313C45.9717 30.2496 44.0799 29.2234 42.813 28.1342C41.5428 27.0422 41 25.9796 41 25C41 24.0204 41.5428 22.9578 42.813 21.8658C44.0799 20.7766 45.9717 19.7504 48.3963 18.8687C53.2373 17.1084 59.9913 16 67.5 16C75.0087 16 81.7627 17.1084 86.6037 18.8687C89.0283 19.7504 90.9201 20.7766 92.187 21.8658C93.4572 22.9578 94 24.0204 94 25Z" fill="#AF7744" stroke="black" stroke-width="2"/>
<path d="M4 8C4 8 10 22 18 22C26 22 21.5 22 29.5 22C37.5 22 41 25 41 25" stroke="black" stroke-width="2" stroke-linecap="round"/>
<path d="M56 36C56 38.9405 55.5105 41.5562 54.7564 43.3995C54.3784 44.3237 53.9535 45.0054 53.5328 45.4403C53.115 45.8723 52.7662 46 52.5 46C52.2338 46 51.885 45.8723 51.4672 45.4403C51.0465 45.0054 50.6216 44.3237 50.2436 43.3995C49.4895 41.5562 49 38.9405 49 36C49 33.0595 49.4895 30.4438 50.2436 28.6005C50.6216 27.6763 51.0465 26.9946 51.4672 26.5597C51.885 26.1277 52.2338 26 52.5 26C52.7662 26 53.115 26.1277 53.5328 26.5597C53.9535 26.9946 54.3784 27.6763 54.7564 28.6005C55.5105 30.4438 56 33.0595 56 36Z" fill="#AF7744" stroke="black" stroke-width="2"/>
<path d="M81 36C81 38.9405 80.5105 41.5562 79.7564 43.3995C79.3784 44.3237 78.9535 45.0054 78.5328 45.4403C78.115 45.8723 77.7662 46 77.5 46C77.2338 46 76.885 45.8723 76.4672 45.4403C76.0465 45.0054 75.6216 44.3237 75.2436 43.3995C74.4895 41.5562 74 38.9405 74 36C74 33.0595 74.4895 30.4438 75.2436 28.6005C75.6216 27.6763 76.0465 26.9946 76.4672 26.5597C76.885 26.1277 77.2338 26 77.5 26C77.7662 26 78.115 26.1277 78.5328 26.5597C78.9535 26.9946 79.3784 27.6763 79.7564 28.6005C80.5105 30.4438 81 33.0595 81 36Z" fill="#AF7744" stroke="black" stroke-width="2"/>
</svg>
