<svg width="130" height="55" viewBox="0 0 130 55" fill="none" xmlns="http://www.w3.org/2000/svg">
<ellipse cx="60.5" cy="40" rx="4.5" ry="11" stroke="white" stroke-width="4"/>
<ellipse cx="85.5" cy="40" rx="4.5" ry="11" stroke="white" stroke-width="4"/>
<path d="M100.71 29.6928L100.947 27.7069L100.6 27.6655L100.26 27.744L100.71 29.6928ZM109.86 16.1613L107.883 16.4653L108.122 18.0209L109.691 18.1542L109.86 16.1613ZM100.26 27.744C99.5356 27.9112 98.7794 28 98 28V32C99.0843 32 100.142 31.8764 101.16 31.6416L100.26 27.744ZM98 28C92.4772 28 88 23.5228 88 18H84C84 25.732 90.268 32 98 32V28ZM88 18C88 12.4772 92.4772 8 98 8V4C90.268 4 84 10.268 84 18H88ZM98 8C103 8 107.146 11.6715 107.883 16.4653L111.837 15.8574C110.804 9.14195 105.004 4 98 4V8ZM109.691 18.1542C113.576 18.4843 116.858 19.316 119.101 20.3867C120.225 20.9232 120.998 21.4771 121.465 21.9781C121.921 22.4681 122 22.8071 122 23H126C126 21.5176 125.322 20.2499 124.391 19.2509C123.47 18.2628 122.224 17.4453 120.824 16.7769C118.019 15.4378 114.231 14.5255 110.029 14.1685L109.691 18.1542ZM122 23C122 23.2178 121.894 23.6432 121.232 24.2524C120.568 24.8632 119.496 25.5052 118.003 26.0857C115.03 27.2419 110.787 28 106 28V32C111.154 32 115.911 31.1911 119.453 29.8138C121.217 29.1276 122.782 28.2611 123.939 27.197C125.098 26.1313 126 24.7152 126 23H122ZM106 28C104.236 28 102.539 27.897 100.947 27.7069L100.473 31.6787C102.226 31.8881 104.082 32 106 32V28Z" fill="white"/>
<ellipse cx="95" cy="20.5" rx="4" ry="6.5" stroke="white" stroke-width="4"/>
<circle cx="102" cy="16" r="2" stroke="white" stroke-width="4"/>
<circle cx="124" cy="23" r="2" stroke="white" stroke-width="4"/>
<path d="M117.003 27C110.003 28.5 101.503 25 106.503 22" stroke="white" stroke-width="4" stroke-linecap="round"/>
<ellipse cx="67.5" cy="30" rx="27.5" ry="10" stroke="white" stroke-width="4"/>
<path d="M4 13C4 13 10 27 18 27C26 27 21.5 27 29.5 27C37.5 27 41 30 41 30" stroke="white" stroke-width="6" stroke-linecap="round"/>
<ellipse cx="52.5" cy="41" rx="4.5" ry="11" stroke="white" stroke-width="4"/>
<ellipse cx="77.5" cy="41" rx="4.5" ry="11" stroke="white" stroke-width="4"/>
<path d="M64 40C64 42.9405 63.5105 45.5562 62.7564 47.3995C62.3784 48.3237 61.9535 49.0054 61.5328 49.4403C61.115 49.8723 60.7662 50 60.5 50C60.2338 50 59.885 49.8723 59.4672 49.4403C59.0465 49.0054 58.6216 48.3237 58.2436 47.3995C57.4895 45.5562 57 42.9405 57 40C57 37.0595 57.4895 34.4438 58.2436 32.6005C58.6216 31.6763 59.0465 30.9946 59.4672 30.5597C59.885 30.1277 60.2338 30 60.5 30C60.7662 30 61.115 30.1277 61.5328 30.5597C61.9535 30.9946 62.3784 31.6763 62.7564 32.6005C63.5105 34.4438 64 37.0595 64 40Z" fill="#AF7744" stroke="black" stroke-width="2"/>
<path d="M89 40C89 42.9405 88.5105 45.5562 87.7564 47.3995C87.3784 48.3237 86.9535 49.0054 86.5328 49.4403C86.115 49.8723 85.7662 50 85.5 50C85.2338 50 84.885 49.8723 84.4672 49.4403C84.0465 49.0054 83.6216 48.3237 83.2436 47.3995C82.4895 45.5562 82 42.9405 82 40C82 37.0595 82.4895 34.4438 83.2436 32.6005C83.6216 31.6763 84.0465 30.9946 84.4672 30.5597C84.885 30.1277 85.2338 30 85.5 30C85.7662 30 86.115 30.1277 86.5328 30.5597C86.9535 30.9946 87.3784 31.6763 87.7564 32.6005C88.5105 34.4438 89 37.0595 89 40Z" fill="#AF7744" stroke="black" stroke-width="2"/>
<mask id="path-14-inside-1_315_88" fill="white">
<path fill-rule="evenodd" clip-rule="evenodd" d="M100.71 29.6928C99.8389 29.8938 98.9319 30 98 30C91.3726 30 86 24.6274 86 18C86 11.3726 91.3726 6 98 6C104.002 6 108.975 10.4067 109.86 16.1613C117.946 16.8484 124 19.6493 124 23C124 26.866 115.941 30 106 30C104.159 30 102.382 29.8925 100.71 29.6928Z"/>
</mask>
<path fill-rule="evenodd" clip-rule="evenodd" d="M100.71 29.6928C99.8389 29.8938 98.9319 30 98 30C91.3726 30 86 24.6274 86 18C86 11.3726 91.3726 6 98 6C104.002 6 108.975 10.4067 109.86 16.1613C117.946 16.8484 124 19.6493 124 23C124 26.866 115.941 30 106 30C104.159 30 102.382 29.8925 100.71 29.6928Z" fill="#AF7744"/>
<path d="M100.71 29.6928L100.947 27.7069L100.6 27.6655L100.26 27.744L100.71 29.6928ZM109.86 16.1613L107.883 16.4653L108.122 18.0209L109.691 18.1542L109.86 16.1613ZM100.26 27.744C99.5356 27.9112 98.7794 28 98 28V32C99.0843 32 100.142 31.8764 101.16 31.6416L100.26 27.744ZM98 28C92.4772 28 88 23.5228 88 18H84C84 25.732 90.268 32 98 32V28ZM88 18C88 12.4772 92.4772 8 98 8V4C90.268 4 84 10.268 84 18H88ZM98 8C103 8 107.146 11.6715 107.883 16.4653L111.837 15.8574C110.804 9.14195 105.004 4 98 4V8ZM109.691 18.1542C113.576 18.4843 116.858 19.316 119.101 20.3867C120.225 20.9232 120.998 21.4771 121.465 21.9781C121.921 22.4681 122 22.8071 122 23H126C126 21.5176 125.322 20.2499 124.391 19.2509C123.47 18.2628 122.224 17.4453 120.824 16.7769C118.019 15.4378 114.231 14.5255 110.029 14.1685L109.691 18.1542ZM122 23C122 23.2178 121.894 23.6432 121.232 24.2524C120.568 24.8632 119.496 25.5052 118.003 26.0857C115.03 27.2419 110.787 28 106 28V32C111.154 32 115.911 31.1911 119.453 29.8138C121.217 29.1276 122.782 28.2611 123.939 27.197C125.098 26.1313 126 24.7152 126 23H122ZM106 28C104.236 28 102.539 27.897 100.947 27.7069L100.473 31.6787C102.226 31.8881 104.082 32 106 32V28Z" fill="black" mask="url(#path-14-inside-1_315_88)"/>
<path d="M98 20.5C98 22.1403 97.5888 23.5775 96.9768 24.5721C96.3548 25.5829 95.6278 26 95 26C94.3722 26 93.6452 25.5829 93.0232 24.5721C92.4112 23.5775 92 22.1403 92 20.5C92 18.8597 92.4112 17.4225 93.0232 16.4279C93.6452 15.4171 94.3722 15 95 15C95.6278 15 96.3548 15.4171 96.9768 16.4279C97.5888 17.4225 98 18.8597 98 20.5Z" fill="#AF7744" stroke="black" stroke-width="2"/>
<circle cx="102" cy="16" r="1" fill="#AF7744" stroke="black" stroke-width="2"/>
<circle cx="124" cy="23" r="1" fill="#AF7744" stroke="black" stroke-width="2"/>
<path d="M117.003 27C110.003 28.5 101.503 25 106.503 22" stroke="black" stroke-width="2" stroke-linecap="round"/>
<path d="M94 30C94 30.9796 93.4572 32.0422 92.187 33.1342C90.9201 34.2234 89.0283 35.2496 86.6037 36.1313C81.7627 37.8916 75.0087 39 67.5 39C59.9913 39 53.2373 37.8916 48.3963 36.1313C45.9717 35.2496 44.0799 34.2234 42.813 33.1342C41.5428 32.0422 41 30.9796 41 30C41 29.0204 41.5428 27.9578 42.813 26.8658C44.0799 25.7766 45.9717 24.7504 48.3963 23.8687C53.2373 22.1084 59.9913 21 67.5 21C75.0087 21 81.7627 22.1084 86.6037 23.8687C89.0283 24.7504 90.9201 25.7766 92.187 26.8658C93.4572 27.9578 94 29.0204 94 30Z" fill="#AF7744" stroke="black" stroke-width="2"/>
<path d="M4 13C4 13 10 27 18 27C26 27 21.5 27 29.5 27C37.5 27 41 30 41 30" stroke="black" stroke-width="2" stroke-linecap="round"/>
<path d="M56 41C56 43.9405 55.5105 46.5562 54.7564 48.3995C54.3784 49.3237 53.9535 50.0054 53.5328 50.4403C53.115 50.8723 52.7662 51 52.5 51C52.2338 51 51.885 50.8723 51.4672 50.4403C51.0465 50.0054 50.6216 49.3237 50.2436 48.3995C49.4895 46.5562 49 43.9405 49 41C49 38.0595 49.4895 35.4438 50.2436 33.6005C50.6216 32.6763 51.0465 31.9946 51.4672 31.5597C51.885 31.1277 52.2338 31 52.5 31C52.7662 31 53.115 31.1277 53.5328 31.5597C53.9535 31.9946 54.3784 32.6763 54.7564 33.6005C55.5105 35.4438 56 38.0595 56 41Z" fill="#AF7744" stroke="black" stroke-width="2"/>
<path d="M81 41C81 43.9405 80.5105 46.5562 79.7564 48.3995C79.3784 49.3237 78.9535 50.0054 78.5328 50.4403C78.115 50.8723 77.7662 51 77.5 51C77.2338 51 76.885 50.8723 76.4672 50.4403C76.0465 50.0054 75.6216 49.3237 75.2436 48.3995C74.4895 46.5562 74 43.9405 74 41C74 38.0595 74.4895 35.4438 75.2436 33.6005C75.6216 32.6763 76.0465 31.9946 76.4672 31.5597C76.885 31.1277 77.2338 31 77.5 31C77.7662 31 78.115 31.1277 78.5328 31.5597C78.9535 31.9946 79.3784 32.6763 79.7564 33.6005C80.5105 35.4438 81 38.0595 81 41Z" fill="#AF7744" stroke="black" stroke-width="2"/>
</svg>
